<?xml version="1.0" encoding="UTF-8"?>
<svg id="Layer_2" data-name="Layer 2" xmlns="http://www.w3.org/2000/svg" width="400.19" height="356.86" xmlns:xlink="http://www.w3.org/1999/xlink" viewBox="0 0 400.19 356.86">
  <defs>
    <style>
      .cls-1 {
        fill: #fff;
      }

      .cls-2 {
        fill: #009dd9;
      }

      .cls-3 {
        fill: #33b1e1;
      }

      .cls-4 {
        fill: #274f89;
      }

      .cls-5, .cls-6 {
        fill: #173d7a;
      }

      .cls-7 {
        fill: #007eae;
      }

      .cls-8 {
        fill: #396caa;
      }

      .cls-9 {
        clip-path: url(#clippath-1);
      }

      .cls-10 {
        opacity: .3;
      }

      .cls-11 {
        clip-path: url(#clippath);
      }

      .cls-12 {
        fill: #79b1e0;
      }

      .cls-13 {
        fill: none;
      }

      .cls-6 {
        opacity: .5;
      }

      .cls-14 {
        fill: #d4ecff;
      }

      .cls-15 {
        fill: #66c4e8;
      }

      .cls-16 {
        fill: #5793ce;
      }
    </style>
    <clipPath id="clippath">
      <path class="cls-13" d="M327.31,184.36l22.74-92.82-85.91-50.92,49.59-22.85,63.79,24.6s.39,112.4,0,113.53-23.63,38.84-23.63,38.84l-26.57-10.37Z"/>
    </clipPath>
    <clipPath id="clippath-1">
      <path class="cls-13" d="M327.31,184.36l22.74-92.82-85.91-50.92-104.75,38.96,80.38,104.89s66.37,37.82,65.98,38.95c-.39,1.13,48.13-28.68,48.13-28.68l-26.57-10.37Z"/>
    </clipPath>
  </defs>
  <g id="_Ñëîé_1" data-name="Ñëîé 1">
    <g>
      <path class="cls-6" d="M240.35,311.83L97.59,229.4c-4.04-2.33-3.53-6.4,1.13-9.1l97.21-56.11c4.66-2.69,11.72-2.98,15.76-.65l142.77,82.43c4.04,2.33,3.53,6.4-1.13,9.1l-97.21,56.11c-4.66,2.69-11.72,2.98-15.76,.65Z"/>
      <path class="cls-5" d="M394.46,86.69L245.9,.92c-1.73-1-3.48-1.15-5.03-.62v-.02s-.26,.1-.26,.1c-.02,0-.04,.02-.07,.02l-5.37,2.05,4.82,2.36c-.02,.09-.05,.17-.07,.26l-24.2,110.14c-1.21,5.51,1.21,11.95,5.42,14.37l144.98,83.71-.52,6.14,5.87-2.27c1.97-.92,3.55-3.01,4.2-5.98l24.2-110.14c1.21-5.51-1.21-11.95-5.42-14.37Z"/>
      <path class="cls-8" d="M394.46,86.69L245.9,.92c-1.73-1-3.48-1.15-5.03-.62v-.02s-.26,.1-.26,.1c-.02,0-.04,.02-.07,.02l-5.37,2.05,4.82,2.36c-.02,.09-.05,.17-.07,.26l-15.95,72.59,72.69,56.63,102.49-41.7c-.99-2.55-2.62-4.72-4.69-5.92Z"/>
      <path class="cls-4" d="M388.86,103.62l11.31-4.81c.21-4.38-1.61-8.9-4.58-11.32l-17.9,7.53,11.17,8.61Z"/>
      <path class="cls-14" d="M360.45,218.87l-148.55-85.77c-4.2-2.43-6.63-8.86-5.42-14.37L230.67,8.59c1.21-5.51,5.6-8.01,9.8-5.59l148.55,85.77c4.2,2.43,6.63,8.86,5.42,14.37l-24.2,110.14c-1.21,5.51-5.6,8.01-9.8,5.59Z"/>
      <path class="cls-1" d="M390.45,88.24L241.9,2.48c-2.04-1.18-4.11-1.17-5.85-.25,1.4-.31,2.92-.09,4.42,.78l148.55,85.77c4.2,2.43,6.63,8.86,5.42,14.37l-24.2,110.14c-.62,2.84-2.1,4.86-3.95,5.84,2.51-.55,4.6-2.82,5.38-6.36l24.2-110.14c1.21-5.51-1.21-11.95-5.42-14.37Z"/>
      <path class="cls-1" d="M357.23,210.68l-139.71-80.62c-3.85-2.22-6.06-8.11-4.96-13.15l22.14-100.79c1.11-5.04,5.12-7.33,8.97-5.11l139.71,80.62c3.85,2.22,6.06,8.11,4.96,13.15l-22.14,100.79c-1.11,5.04-5.12,7.33-8.97,5.11Z"/>
      <path class="cls-5" d="M357.23,210.68l-139.71-80.62c-3.85-2.22-6.06-8.11-4.96-13.15l22.14-100.79c1.11-5.04,5.12-7.33,8.97-5.11l139.71,80.62c3.85,2.22,6.06,8.11,4.96,13.15l-22.14,100.79c-1.11,5.04-5.12,7.33-8.97,5.11Z"/>
      <path class="cls-16" d="M358.44,210.18l-139.71-80.62c-3.85-2.22-6.06-8.11-4.96-13.15L235.92,15.61c.56-2.55,1.87-4.39,3.52-5.31-2.21,.57-4.04,2.65-4.74,5.8l-22.14,100.79c-1.11,5.04,1.11,10.93,4.96,13.15l139.71,80.62c1.9,1.1,3.84,1.08,5.45,.19-1.33,.34-2.79,.14-4.23-.69Z"/>
      <path class="cls-5" d="M362.5,222.61l-20.31-2.68-131.08-75.68c-4.2-2.43-11.54-2.12-16.4,.68l-92.88,53.61-12.28-1.62v6.97h.01c-.08,1.61,.84,3.16,2.82,4.31l148.55,85.77c4.2,2.43,11.54,2.12,16.4-.68l101.15-58.38c2.73-1.58,4.09-3.61,4.01-5.51h0v-6.77Z"/>
      <path class="cls-8" d="M264.01,174.79l-9.31-5.38h-102.39l-50.48,29.12-12.28-1.62v6.97h.01c-.08,1.61,.84,3.16,2.82,4.31l148.55,85.77c2.22,1.28,5.32,1.79,8.46,1.59l14.61-120.75Z"/>
      <path class="cls-16" d="M95,197.63l-5.45-.72v6.97h.01c-.08,1.61,.84,3.16,2.82,4.31l2.62,1.51v-12.06Z"/>
      <path class="cls-4" d="M242.43,294.65c3.98,1.51,9.68,1.18,13.93-.86v-15.54h-13.93v16.4Z"/>
      <path class="cls-14" d="M240.94,286.99L92.38,201.22c-4.2-2.43-3.68-6.66,1.18-9.47l101.15-58.38c4.85-2.8,12.19-3.11,16.4-.68l148.55,85.77c4.2,2.43,3.68,6.66-1.18,9.47l-101.15,58.38c-4.85,2.8-12.19,3.11-16.4,.68Z"/>
      <path class="cls-1" d="M358.49,225.39l-101.15,58.38c-4.85,2.8-12.19,3.11-16.4,.68L92.38,198.68c-1.38-.8-2.24-1.79-2.61-2.86-.66,1.99,.18,4,2.61,5.4l148.55,85.77c4.2,2.43,11.54,2.12,16.4-.68l101.15-58.38c3.26-1.88,4.56-4.41,3.79-6.61-.48,1.45-1.75,2.88-3.79,4.06Z"/>
      <g>
        <path class="cls-16" d="M155.56,172.83l-6.72-3.88c-.54-.31-.47-.86,.15-1.22l7.93-4.58c.62-.36,1.57-.4,2.11-.09l6.72,3.88c.54,.31,.47,.86-.15,1.22l-7.93,4.58c-.62,.36-1.57,.4-2.11,.09Z"/>
        <path class="cls-16" d="M165.94,178.82l-6.72-3.88c-.54-.31-.47-.86,.15-1.22l7.93-4.58c.62-.36,1.57-.4,2.11-.09l6.72,3.88c.54,.31,.47,.86-.15,1.22l-7.93,4.58c-.62,.36-1.57,.4-2.11,.09Z"/>
        <path class="cls-16" d="M176.32,184.82l-6.72-3.88c-.54-.31-.47-.86,.15-1.22l7.93-4.58c.62-.36,1.57-.4,2.11-.09l6.72,3.88c.54,.31,.47,.86-.15,1.22l-7.93,4.58c-.62,.36-1.57,.4-2.11,.09Z"/>
        <path class="cls-16" d="M190.68,179.87l-6.72-3.88c-.54-.31-.47-.86,.15-1.22l6.66-3.85c.62-.36,1.57-.4,2.11-.09l6.72,3.88c.54,.31,.47,.86-.15,1.22l-6.66,3.85c-.62,.36-1.57,.4-2.11,.09Z"/>
        <path class="cls-16" d="M201.06,185.86l-6.72-3.88c-.54-.31-.47-.86,.15-1.22l6.66-3.85c.62-.36,1.57-.4,2.11-.09l6.72,3.88c.54,.31,.47,.86-.15,1.22l-6.66,3.85c-.62,.36-1.57,.4-2.11,.09Z"/>
        <path class="cls-16" d="M211.44,191.85l-6.72-3.88c-.54-.31-.47-.86,.15-1.22l6.66-3.85c.62-.36,1.57-.4,2.11-.09l6.72,3.88c.54,.31,.47,.86-.15,1.22l-6.66,3.85c-.62,.36-1.57,.4-2.11,.09Z"/>
        <path class="cls-16" d="M221.82,197.85l-6.72-3.88c-.54-.31-.47-.86,.15-1.22l6.66-3.85c.62-.36,1.57-.4,2.11-.09l6.72,3.88c.54,.31,.47,.86-.15,1.22l-6.66,3.85c-.62,.36-1.57,.4-2.11,.09Z"/>
        <path class="cls-16" d="M232.2,203.84l-6.72-3.88c-.54-.31-.47-.86,.15-1.22l6.66-3.85c.62-.36,1.57-.4,2.11-.09l6.72,3.88c.54,.31,.47,.86-.15,1.22l-6.66,3.85c-.62,.36-1.57,.4-2.11,.09Z"/>
        <path class="cls-16" d="M242.58,209.83l-6.72-3.88c-.54-.31-.47-.86,.15-1.22l6.66-3.85c.62-.36,1.57-.4,2.11-.09l6.72,3.88c.54,.31,.47,.86-.15,1.22l-6.66,3.85c-.62,.36-1.57,.4-2.11,.09Z"/>
        <path class="cls-16" d="M252.96,215.82l-6.72-3.88c-.54-.31-.47-.86,.15-1.22l6.66-3.85c.62-.36,1.57-.4,2.11-.09l6.72,3.88c.54,.31,.47,.86-.15,1.22l-6.66,3.85c-.62,.36-1.57,.4-2.11,.09Z"/>
        <path class="cls-16" d="M263.34,221.82l-6.72-3.88c-.54-.31-.47-.86,.15-1.22l6.66-3.85c.62-.36,1.57-.4,2.11-.09l6.72,3.88c.54,.31,.47,.86-.15,1.22l-6.66,3.85c-.62,.36-1.57,.4-2.11,.09Z"/>
        <path class="cls-16" d="M273.72,227.81l-6.72-3.88c-.54-.31-.47-.86,.15-1.22l6.66-3.85c.62-.36,1.57-.4,2.11-.09l6.72,3.88c.54,.31,.47,.86-.15,1.22l-6.66,3.85c-.62,.36-1.57,.4-2.11,.09Z"/>
        <path class="cls-16" d="M284.1,233.8l-6.72-3.88c-.54-.31-.47-.86,.15-1.22l6.66-3.85c.62-.36,1.57-.4,2.11-.09l6.72,3.88c.54,.31,.47,.86-.15,1.22l-6.66,3.85c-.62,.36-1.57,.4-2.11,.09Z"/>
        <path class="cls-16" d="M205.97,177.03l-6.72-3.88c-.54-.31-.47-.86,.15-1.22l6.66-3.85c.62-.36,1.57-.4,2.11-.09l6.72,3.88c.54,.31,.47,.86-.15,1.22l-6.66,3.85c-.62,.36-1.57,.4-2.11,.09Z"/>
        <path class="cls-16" d="M195.44,170.95l-6.72-3.88c-.54-.31-.47-.86,.15-1.22l6.66-3.85c.62-.36,1.57-.4,2.11-.09l6.72,3.88c.54,.31,.47,.86-.15,1.22l-6.66,3.85c-.62,.36-1.57,.4-2.11,.09Z"/>
        <path class="cls-16" d="M184.89,164.85l-14.48-8.36c-.54-.31-.47-.86,.15-1.22l6.66-3.85c.62-.36,1.57-.4,2.11-.09l14.48,8.36c.54,.31,.47,.86-.15,1.22l-6.66,3.85c-.62,.36-1.57,.4-2.11,.09Z"/>
        <path class="cls-16" d="M192.26,157.45l-11.75-6.78c-.54-.31-.47-.86,.15-1.22l6.66-3.85c.62-.36,1.57-.4,2.11-.09l11.75,6.78c.54,.31,.47,.86-.15,1.22l-6.66,3.85c-.62,.36-1.57,.4-2.11,.09Z"/>
        <path class="cls-16" d="M216.35,183.02l-6.72-3.88c-.54-.31-.47-.86,.15-1.22l6.66-3.85c.62-.36,1.57-.4,2.11-.09l6.72,3.88c.54,.31,.47,.86-.15,1.22l-6.66,3.85c-.62,.36-1.57,.4-2.11,.09Z"/>
        <path class="cls-16" d="M226.73,189.01l-6.72-3.88c-.54-.31-.47-.86,.15-1.22l6.66-3.85c.62-.36,1.57-.4,2.11-.09l6.72,3.88c.54,.31,.47,.86-.15,1.22l-6.66,3.85c-.62,.36-1.57,.4-2.11,.09Z"/>
        <path class="cls-16" d="M237.11,195.01l-6.72-3.88c-.54-.31-.47-.86,.15-1.22l6.66-3.85c.62-.36,1.57-.4,2.11-.09l6.72,3.88c.54,.31,.47,.86-.15,1.22l-6.66,3.85c-.62,.36-1.57,.4-2.11,.09Z"/>
        <path class="cls-16" d="M247.49,201l-6.72-3.88c-.54-.31-.47-.86,.15-1.22l6.66-3.85c.62-.36,1.57-.4,2.11-.09l6.72,3.88c.54,.31,.47,.86-.15,1.22l-6.66,3.85c-.62,.36-1.57,.4-2.11,.09Z"/>
        <path class="cls-16" d="M257.87,206.99l-6.72-3.88c-.54-.31-.47-.86,.15-1.22l6.66-3.85c.62-.36,1.57-.4,2.11-.09l6.72,3.88c.54,.31,.47,.86-.15,1.22l-6.66,3.85c-.62,.36-1.57,.4-2.11,.09Z"/>
        <path class="cls-16" d="M268.25,212.99l-6.72-3.88c-.54-.31-.47-.86,.15-1.22l6.66-3.85c.62-.36,1.57-.4,2.11-.09l6.72,3.88c.54,.31,.47,.86-.15,1.22l-6.66,3.85c-.62,.36-1.57,.4-2.11,.09Z"/>
        <path class="cls-16" d="M278.63,218.98l-6.72-3.88c-.54-.31-.47-.86,.15-1.22l6.66-3.85c.62-.36,1.57-.4,2.11-.09l6.72,3.88c.54,.31,.47,.86-.15,1.22l-6.66,3.85c-.62,.36-1.57,.4-2.11,.09Z"/>
        <path class="cls-16" d="M289.01,224.97l-6.72-3.88c-.54-.31-.47-.86,.15-1.22l6.66-3.85c.62-.36,1.57-.4,2.11-.09l6.72,3.88c.54,.31,.47,.86-.15,1.22l-6.66,3.85c-.62,.36-1.57,.4-2.11,.09Z"/>
        <path class="cls-16" d="M299.39,230.97l-6.72-3.88c-.54-.31-.47-.86,.15-1.22l6.66-3.85c.62-.36,1.57-.4,2.11-.09l6.72,3.88c.54,.31,.47,.86-.15,1.22l-6.66,3.85c-.62,.36-1.57,.4-2.11,.09Z"/>
        <path class="cls-16" d="M317.85,241.62l-14.67-8.47c-.54-.31-.47-.86,.15-1.22l6.66-3.85c.62-.36,1.57-.4,2.11-.09l14.67,8.47c.54,.31,.47,.86-.15,1.22l-6.66,3.85c-.62,.36-1.57,.4-2.11,.09Z"/>
        <path class="cls-16" d="M338.06,229.95l-12.38-7.15c-.54-.31-.47-.86,.15-1.22l6.66-3.85c.62-.36,1.57-.4,2.11-.09l12.38,7.15c.54,.31,.47,.86-.15,1.22l-6.66,3.85c-.62,.36-1.57,.4-2.11,.09Z"/>
        <path class="cls-16" d="M234.53,181.85l-6.72-3.88c-.54-.31-.47-.86,.15-1.22l6.66-3.85c.62-.36,1.57-.4,2.11-.09l6.72,3.88c.54,.31,.47,.86-.15,1.22l-6.66,3.85c-.62,.36-1.57,.4-2.11,.09Z"/>
        <path class="cls-16" d="M223.89,175.71l-6.72-3.88c-.54-.31-.47-.86,.15-1.22l6.66-3.85c.62-.36,1.57-.4,2.11-.09l6.72,3.88c.54,.31,.47,.86-.15,1.22l-6.66,3.85c-.62,.36-1.57,.4-2.11,.09Z"/>
        <path class="cls-16" d="M213.26,169.57l-6.72-3.88c-.54-.31-.47-.86,.15-1.22l6.66-3.85c.62-.36,1.57-.4,2.11-.09l6.72,3.88c.54,.31,.47,.86-.15,1.22l-6.66,3.85c-.62,.36-1.57,.4-2.11,.09Z"/>
        <path class="cls-16" d="M202.62,163.42l-6.72-3.88c-.54-.31-.47-.86,.15-1.22l6.66-3.85c.62-.36,1.57-.4,2.11-.09l6.72,3.88c.54,.31,.47,.86-.15,1.22l-6.66,3.85c-.62,.36-1.57,.4-2.11,.09Z"/>
        <path class="cls-16" d="M244.91,187.84l-6.72-3.88c-.54-.31-.47-.86,.15-1.22l6.66-3.85c.62-.36,1.57-.4,2.11-.09l6.72,3.88c.54,.31,.47,.86-.15,1.22l-6.66,3.85c-.62,.36-1.57,.4-2.11,.09Z"/>
        <path class="cls-16" d="M255.29,193.84l-6.72-3.88c-.54-.31-.47-.86,.15-1.22l6.66-3.85c.62-.36,1.57-.4,2.11-.09l6.72,3.88c.54,.31,.47,.86-.15,1.22l-6.66,3.85c-.62,.36-1.57,.4-2.11,.09Z"/>
        <path class="cls-16" d="M265.67,199.83l-6.72-3.88c-.54-.31-.47-.86,.15-1.22l6.66-3.85c.62-.36,1.57-.4,2.11-.09l6.72,3.88c.54,.31,.47,.86-.15,1.22l-6.66,3.85c-.62,.36-1.57,.4-2.11,.09Z"/>
        <path class="cls-16" d="M276.05,205.82l-6.72-3.88c-.54-.31-.47-.86,.15-1.22l6.66-3.85c.62-.36,1.57-.4,2.11-.09l6.72,3.88c.54,.31,.47,.86-.15,1.22l-6.66,3.85c-.62,.36-1.57,.4-2.11,.09Z"/>
        <path class="cls-16" d="M286.43,211.81l-6.72-3.88c-.54-.31-.47-.86,.15-1.22l6.66-3.85c.62-.36,1.57-.4,2.11-.09l6.72,3.88c.54,.31,.47,.86-.15,1.22l-6.66,3.85c-.62,.36-1.57,.4-2.11,.09Z"/>
        <path class="cls-16" d="M296.81,217.81l-6.72-3.88c-.54-.31-.47-.86,.15-1.22l6.66-3.85c.62-.36,1.57-.4,2.11-.09l6.72,3.88c.54,.31,.47,.86-.15,1.22l-6.66,3.85c-.62,.36-1.57,.4-2.11,.09Z"/>
        <path class="cls-16" d="M307.19,223.8l-6.72-3.88c-.54-.31-.47-.86,.15-1.22l6.66-3.85c.62-.36,1.57-.4,2.11-.09l6.72,3.88c.54,.31,.47,.86-.15,1.22l-6.66,3.85c-.62,.36-1.57,.4-2.11,.09Z"/>
        <path class="cls-16" d="M317.57,229.79l-6.72-3.88c-.54-.31-.47-.86,.15-1.22l6.66-3.85c.62-.36,1.57-.4,2.11-.09l6.72,3.88c.54,.31,.47,.86-.15,1.22l-6.66,3.85c-.62,.36-1.57,.4-2.11,.09Z"/>
        <path class="cls-16" d="M327.95,235.79l-6.72-3.88c-.54-.31-.47-.86,.15-1.22l6.66-3.85c.62-.36,1.57-.4,2.11-.09l6.72,3.88c.54,.31,.47,.86-.15,1.22l-6.66,3.85c-.62,.36-1.57,.4-2.11,.09Z"/>
        <path class="cls-16" d="M229.07,167.03l-6.72-3.88c-.54-.31-.47-.86,.15-1.22l6.66-3.85c.62-.36,1.57-.4,2.11-.09l6.72,3.88c.54,.31,.47,.86-.15,1.22l-6.66,3.85c-.62,.36-1.57,.4-2.11,.09Z"/>
        <path class="cls-16" d="M218.74,161.06l-6.72-3.88c-.54-.31-.47-.86,.15-1.22l6.66-3.85c.62-.36,1.57-.4,2.11-.09l6.72,3.88c.54,.31,.47,.86-.15,1.22l-6.66,3.85c-.62,.36-1.57,.4-2.11,.09Z"/>
        <path class="cls-16" d="M208.41,155.1l-6.72-3.88c-.54-.31-.47-.86,.15-1.22l6.66-3.85c.62-.36,1.57-.4,2.11-.09l6.72,3.88c.54,.31,.47,.86-.15,1.22l-6.66,3.85c-.62,.36-1.57,.4-2.11,.09Z"/>
        <path class="cls-16" d="M198.08,149.14l-6.72-3.88c-.54-.31-.47-.86,.15-1.22l6.66-3.85c.62-.36,1.57-.4,2.11-.09l6.72,3.88c.54,.31,.47,.86-.15,1.22l-6.66,3.85c-.62,.36-1.57,.4-2.11,.09Z"/>
        <path class="cls-16" d="M208.7,143.01l-6.72-3.88c-.54-.31-.47-.86,.15-1.22l2.2-1.27c.62-.36,1.57-.4,2.11-.09l6.72,3.88c.54,.31,.47,.86-.15,1.22l-2.2,1.27c-.62,.36-1.57,.4-2.11,.09Z"/>
        <path class="cls-16" d="M222.18,150.79l-6.72-3.88c-.54-.31-.47-.86,.15-1.22l2.2-1.27c.62-.36,1.57-.4,2.11-.09l6.72,3.88c.54,.31,.47,.86-.15,1.22l-2.2,1.27c-.62,.36-1.57,.4-2.11,.09Z"/>
        <path class="cls-16" d="M232.47,156.73l-6.72-3.88c-.54-.31-.47-.86,.15-1.22l2.2-1.27c.62-.36,1.57-.4,2.11-.09l6.72,3.88c.54,.31,.47,.86-.15,1.22l-2.2,1.27c-.62,.36-1.57,.4-2.11,.09Z"/>
        <path class="cls-16" d="M242.75,162.66l-6.72-3.88c-.54-.31-.47-.86,.15-1.22l2.2-1.27c.62-.36,1.57-.4,2.11-.09l6.72,3.88c.54,.31,.47,.86-.15,1.22l-2.2,1.27c-.62,.36-1.57,.4-2.11,.09Z"/>
        <path class="cls-16" d="M253.04,168.6l-6.72-3.88c-.54-.31-.47-.86,.15-1.22l2.2-1.27c.62-.36,1.57-.4,2.11-.09l6.72,3.88c.54,.31,.47,.86-.15,1.22l-2.2,1.27c-.62,.36-1.57,.4-2.11,.09Z"/>
        <path class="cls-16" d="M310.46,201.75l-6.72-3.88c-.54-.31-.47-.86,.15-1.22l2.2-1.27c.62-.36,1.57-.4,2.11-.09l6.72,3.88c.54,.31,.47,.86-.15,1.22l-2.2,1.27c-.62,.36-1.57,.4-2.11,.09Z"/>
        <path class="cls-16" d="M320.74,207.69l-6.72-3.88c-.54-.31-.47-.86,.15-1.22l2.2-1.27c.62-.36,1.57-.4,2.11-.09l6.72,3.88c.54,.31,.47,.86-.15,1.22l-2.2,1.27c-.62,.36-1.57,.4-2.11,.09Z"/>
        <path class="cls-16" d="M331.03,213.63l-6.72-3.88c-.54-.31-.47-.86,.15-1.22l2.2-1.27c.62-.36,1.57-.4,2.11-.09l6.72,3.88c.54,.31,.47,.86-.15,1.22l-2.2,1.27c-.62,.36-1.57,.4-2.11,.09Z"/>
        <path class="cls-16" d="M341.31,219.57l-6.72-3.88c-.54-.31-.47-.86,.15-1.22l2.2-1.27c.62-.36,1.57-.4,2.11-.09l6.72,3.88c.54,.31,.47,.86-.15,1.22l-2.2,1.27c-.62,.36-1.57,.4-2.11,.09Z"/>
        <path class="cls-16" d="M239.45,173.02l-6.72-3.88c-.54-.31-.47-.86,.15-1.22l6.66-3.85c.62-.36,1.57-.4,2.11-.09l6.72,3.88c.54,.31,.47,.86-.15,1.22l-6.66,3.85c-.62,.36-1.57,.4-2.11,.09Z"/>
        <path class="cls-16" d="M249.83,179.01l-6.72-3.88c-.54-.31-.47-.86,.15-1.22l6.66-3.85c.62-.36,1.57-.4,2.11-.09l6.72,3.88c.54,.31,.47,.86-.15,1.22l-6.66,3.85c-.62,.36-1.57,.4-2.11,.09Z"/>
        <path class="cls-16" d="M260.21,185.01l-6.72-3.88c-.54-.31-.47-.86,.15-1.22l6.66-3.85c.62-.36,1.57-.4,2.11-.09l6.72,3.88c.54,.31,.47,.86-.15,1.22l-6.66,3.85c-.62,.36-1.57,.4-2.11,.09Z"/>
        <path class="cls-16" d="M270.59,191l-6.72-3.88c-.54-.31-.47-.86,.15-1.22l6.66-3.85c.62-.36,1.57-.4,2.11-.09l6.72,3.88c.54,.31,.47,.86-.15,1.22l-6.66,3.85c-.62,.36-1.57,.4-2.11,.09Z"/>
        <path class="cls-16" d="M280.97,196.99l-6.72-3.88c-.54-.31-.47-.86,.15-1.22l6.66-3.85c.62-.36,1.57-.4,2.11-.09l6.72,3.88c.54,.31,.47,.86-.15,1.22l-6.66,3.85c-.62,.36-1.57,.4-2.11,.09Z"/>
        <path class="cls-16" d="M291.35,202.98l-6.72-3.88c-.54-.31-.47-.86,.15-1.22l6.66-3.85c.62-.36,1.57-.4,2.11-.09l6.72,3.88c.54,.31,.47,.86-.15,1.22l-6.66,3.85c-.62,.36-1.57,.4-2.11,.09Z"/>
        <path class="cls-16" d="M301.73,208.98l-6.72-3.88c-.54-.31-.47-.86,.15-1.22l6.66-3.85c.62-.36,1.57-.4,2.11-.09l6.72,3.88c.54,.31,.47,.86-.15,1.22l-6.66,3.84c-.62,.36-1.57,.4-2.11,.09Z"/>
        <path class="cls-16" d="M312.11,214.97l-6.72-3.88c-.54-.31-.47-.86,.15-1.22l6.66-3.85c.62-.36,1.57-.4,2.11-.09l6.72,3.88c.54,.31,.47,.86-.15,1.22l-6.66,3.85c-.62,.36-1.57,.4-2.11,.09Z"/>
        <path class="cls-16" d="M322.49,220.96l-6.72-3.88c-.54-.31-.47-.86,.15-1.22l6.66-3.85c.62-.36,1.57-.4,2.11-.09l6.72,3.88c.54,.31,.47,.86-.15,1.22l-6.66,3.85c-.62,.36-1.57,.4-2.11,.09Z"/>
        <path class="cls-16" d="M180.1,173.76l-19.8-11.43c-.54-.31-.47-.86,.15-1.22l6.66-3.85c.62-.36,1.57-.4,2.11-.09l19.8,11.43c.54,.31,.47,.86-.15,1.22l-6.66,3.85c-.62,.36-1.57,.4-2.11,.09Z"/>
        <path class="cls-16" d="M307.62,247.38l-19.8-11.43c-.54-.31-.47-.86,.15-1.22l6.66-3.85c.62-.36,1.57-.4,2.11-.09l19.8,11.43c.54,.31,.47,.86-.15,1.22l-6.66,3.85c-.62,.36-1.57,.4-2.11,.09Z"/>
        <path class="cls-16" d="M266.11,236.65l-6.72-3.88c-.54-.31-.47-.86,.15-1.22l7.93-4.58c.62-.36,1.57-.4,2.11-.09l6.72,3.88c.54,.31,.47,.86-.15,1.22l-7.93,4.58c-.62,.36-1.57,.4-2.11,.09Z"/>
        <path class="cls-16" d="M190.73,193.13l-10.75-6.21c-.54-.31-.47-.86,.15-1.22l7.93-4.58c.62-.36,1.57-.4,2.11-.09l10.75,6.21c.54,.31,.47,.86-.15,1.22l-7.93,4.58c-.62,.36-1.57,.4-2.11,.09Z"/>
        <path class="cls-16" d="M256.11,230.88l-10.75-6.21c-.54-.31-.47-.86,.15-1.22l7.93-4.58c.62-.36,1.57-.4,2.11-.09l10.75,6.21c.54,.31,.47,.86-.15,1.22l-7.93,4.58c-.62,.36-1.57,.4-2.11,.09Z"/>
        <path class="cls-16" d="M205.71,201.78l-10.75-6.21c-.54-.31-.47-.86,.15-1.22l7.93-4.58c.62-.36,1.57-.4,2.11-.09l10.75,6.21c.54,.31,.47,.86-.15,1.22l-7.93,4.58c-.62,.36-1.57,.4-2.11,.09Z"/>
        <path class="cls-16" d="M205.22,189.73l46.74,26.98c.58,.33,.58,.88,0,1.21l-8.09,4.67c-.58,.33-1.52,.33-2.1,0l-46.74-26.98,10.19-5.88Z"/>
        <path class="cls-16" d="M295.12,247.52l7.49,4.32c.44,.26,.39,.7-.12,1l-3.25,1.87c-.51,.29-1.28,.33-1.73,.07l-7.49-4.32c-.44-.26-.39-.7,.12-1l3.25-1.87c.51-.29,1.28-.33,1.73-.07Z"/>
        <path class="cls-16" d="M284.66,241.48l7.49,4.32c.44,.26,.39,.7-.12,1l-3.25,1.87c-.51,.29-1.28,.33-1.73,.07l-7.49-4.32c-.44-.26-.39-.7,.12-1l3.25-1.87c.51-.29,1.28-.33,1.73-.07Z"/>
        <path class="cls-16" d="M274.28,235.49l7.49,4.32c.44,.26,.39,.7-.12,1l-3.25,1.87c-.51,.29-1.28,.33-1.73,.07l-7.49-4.32c-.44-.26-.39-.7,.12-1l3.25-1.87c.51-.29,1.28-.33,1.73-.07Z"/>
        <path class="cls-16" d="M290.39,238.17l7.49,4.32c.44,.26,.39,.7-.12,1l-3.25,1.87c-.51,.3-1.28,.33-1.73,.07l-7.49-4.32c-.44-.26-.39-.7,.12-1l3.25-1.87c.51-.3,1.28-.33,1.73-.07Z"/>
      </g>
      <g>
        <polygon class="cls-14" points="331.39 121.23 275.48 88.95 276.2 85.32 332.11 117.6 331.39 121.23"/>
        <polygon class="cls-14" points="311.37 127.36 272.34 104.83 273.06 101.2 312.08 123.73 311.37 127.36"/>
        <polygon class="cls-1" points="307.67 116.38 273.91 96.89 274.63 93.26 308.39 112.75 307.67 116.38"/>
        <polygon class="cls-3" points="329.82 129.17 312.94 119.42 313.66 115.79 330.54 125.54 329.82 129.17"/>
        <polygon class="cls-14" points="269.52 57.24 252.64 47.49 253.36 43.86 270.24 53.6 269.52 57.24"/>
        <polygon class="cls-1" points="267.69 65.68 250.81 55.94 251.53 52.3 268.41 62.05 267.69 65.68"/>
        <polygon class="cls-14" points="350.55 182.85 333.67 173.1 334.39 169.47 351.27 179.22 350.55 182.85"/>
        <polygon class="cls-14" points="264.03 82.58 247.15 72.83 247.87 69.2 264.75 78.94 264.03 82.58"/>
      </g>
      <g>
        <path class="cls-3" d="M300.51,85.2c-.54,1.17-1.9,1.59-3.04,.93s-1.63-2.14-1.09-3.31c.54-1.17,1.9-1.59,3.04-.93,1.14,.66,1.63,2.14,1.09,3.32Z"/>
        <path class="cls-1" d="M307.78,89.39c-.54,1.17-1.9,1.59-3.04,.93s-1.63-2.14-1.09-3.32c.54-1.17,1.9-1.59,3.04-.93,1.14,.66,1.63,2.14,1.09,3.32Z"/>
        <path class="cls-14" d="M315.05,93.59c-.54,1.17-1.9,1.59-3.04,.93s-1.63-2.14-1.09-3.31c.54-1.17,1.9-1.59,3.04-.93,1.14,.66,1.63,2.14,1.09,3.32Z"/>
        <path class="cls-3" d="M322.32,97.79c-.54,1.17-1.9,1.59-3.04,.93-1.14-.66-1.63-2.14-1.09-3.31,.54-1.17,1.9-1.59,3.04-.93s1.63,2.14,1.09,3.32Z"/>
      </g>
      <path class="cls-1" d="M201.45,249.09l-46.35-26.76c-1.35-.78-1.18-2.14,.38-3.04l27.97-16.15c1.56-.9,3.91-1,5.26-.22l46.35,26.76c1.35,.78,1.18,2.14-.38,3.04l-27.97,16.15c-1.56,.9-3.91,1-5.26,.22Z"/>
    </g>
    <g class="cls-10">
      <g class="cls-11">
        <g>
          <g>
            <g>
              <path class="cls-14" d="M302.04,128.58c3.19,1.84,3.19,4.84,0,6.69l-54.27,31.33c-.88,.51-2.3,.51-3.18,0-.88-.51-.88-1.33,0-1.84l54.27-31.33c1.44-.83,1.44-2.18,0-3.02l-5.26-3.04c.58-.88,1.11-1.79,1.63-2.73l6.8,3.93Z"/>
              <path class="cls-16" d="M225.17,153.55l54.27-31.33c3.19-1.84,8.39-1.84,11.58,0l4.21,2.43c-.52,.93-1.05,1.85-1.63,2.73l-5.75-3.32c-1.44-.83-3.78-.83-5.22,0l-54.27,31.33c-.88,.51-2.3,.51-3.18,0-.88-.51-.88-1.33,0-1.84Z"/>
            </g>
            <polygon class="cls-16" points="224.52 154.54 224.51 78.22 281.39 46.52 289.34 45.99 297.03 50.97 301.75 55.08 246.34 142.95 228.25 153.62 224.52 154.54"/>
            <polygon class="cls-12" points="245.55 164.17 228.55 154.36 228.55 80.61 246.08 88.75 245.55 164.17"/>
            <polygon class="cls-14" points="304.43 55.67 304.43 131.86 244.73 166.01 243.93 165.69 243.93 89.39 304.43 55.67"/>
            <path class="cls-1" d="M270.85,56.3l11.87-6.82c1.45-.67,3.57-.63,4.91,.15l11.01,6.36c.85,.49,1.2,1.17,1.04,1.81l-29.98,17.92-24.08,14.78-17.06-9.89,42.3-24.3Z"/>
            <path class="cls-16" d="M246.08,88.19v78.78c-.54-.01-1.08-.14-1.49-.37-.43-.25-.65-.57-.66-.9h0V89.39l2.15-1.2Z"/>
            <polygon class="cls-1" points="224.51 79.17 224.51 78.22 224.82 78.22 224.91 78.87 224.51 79.17"/>
            <polygon class="cls-1" points="243.93 90.38 243.93 89.41 244.22 89.82 243.93 90.38"/>
            <path class="cls-14" d="M247.77,90.3l54.27-31.33c3.19-1.84,3.19-4.84,0-6.69l-11.01-6.36c-3.19-1.84-8.39-1.84-11.58,0l-54.27,31.33c-.88,.51-.88,1.33,0,1.84,.88,.51,2.3,.51,3.18,0l54.27-31.33c1.44-.83,3.78-.83,5.22,0l11.01,6.36c1.44,.83,1.44,2.18,0,3.02l-54.27,31.33c-.88,.51-.88,1.33,0,1.84,.88,.51,2.3,.51,3.18,0Z"/>
            <polygon class="cls-1" points="261.91 126.42 290.11 110.14 290.11 81.86 261.91 98.15 261.91 126.42"/>
            <g>
              <path class="cls-1" d="M225.17,79.09c.88,.51,2.3,.51,3.18,0l54.27-31.33c1.44-.83,3.78-.83,5.22,0l11.01,6.36c.94,.54,1.26,1.31,.97,2.01-.15-.37-.48-.72-.97-1.01l-11.01-6.36c-1.44-.83-3.78-.83-5.22,0l-54.27,31.33c-.88,.51-2.3,.51-3.18,0-.67-.38-.82-.95-.48-1.42,.11,.15,.27,.29,.48,.42Z"/>
              <path class="cls-1" d="M244.59,90.3c.88,.51,2.3,.51,3.18,0l54.27-31.33c1.38-.79,2.15-1.8,2.34-2.84,.25,1.37-.53,2.8-2.34,3.85l-54.27,31.33c-.88,.51-2.3,.51-3.18,0-.67-.38-.82-.95-.48-1.42,.11,.15,.27,.29,.48,.42Z"/>
            </g>
          </g>
          <g>
            <g>
              <path class="cls-3" d="M326.99,143.35c3.19,1.84,3.19,4.84,0,6.69l-54.27,31.33c-.88,.51-2.3,.51-3.18,0-.88-.51-.88-1.33,0-1.84l54.27-31.33c1.44-.83,1.44-2.18,0-3.02l-5.26-3.04c.58-.88,1.11-1.79,1.63-2.73l6.8,3.93Z"/>
              <path class="cls-7" d="M250.12,168.33l54.27-31.33c3.19-1.84,8.39-1.84,11.58,0l4.21,2.43c-.52,.93-1.05,1.85-1.63,2.73l-5.75-3.32c-1.44-.83-3.78-.83-5.22,0l-54.27,31.33c-.88,.51-2.3,.51-3.18,0-.88-.51-.88-1.33,0-1.84Z"/>
            </g>
            <polygon class="cls-7" points="249.47 169.31 249.47 92.99 306.34 61.29 314.29 60.76 321.98 65.75 326.7 69.85 271.29 157.73 253.2 168.39 249.47 169.31"/>
            <polygon class="cls-15" points="270.5 178.95 253.5 169.13 253.5 95.38 271.03 103.52 270.5 178.95"/>
            <polygon class="cls-3" points="329.38 70.44 329.38 146.63 269.68 180.79 268.88 180.47 268.88 104.16 329.38 70.44"/>
            <path class="cls-1" d="M295.8,71.07l11.87-6.82c1.45-.67,3.57-.63,4.91,.15l11.01,6.36c.85,.49,1.2,1.17,1.04,1.81l-29.98,17.92-24.08,14.78-17.06-9.89,42.3-24.3Z"/>
            <path class="cls-7" d="M271.03,102.97v78.78c-.54-.01-1.08-.14-1.49-.37-.43-.25-.65-.57-.66-.9h0V104.16l2.15-1.2Z"/>
            <polygon class="cls-1" points="249.47 93.95 249.47 92.99 249.77 92.99 249.86 93.64 249.47 93.95"/>
            <polygon class="cls-1" points="268.88 105.15 268.88 104.18 269.17 104.59 268.88 105.15"/>
            <path class="cls-3" d="M272.72,105.07l54.27-31.33c3.19-1.84,3.19-4.84,0-6.69l-11.01-6.36c-3.19-1.84-8.39-1.84-11.58,0l-54.27,31.33c-.88,.51-.88,1.33,0,1.84,.88,.51,2.3,.51,3.18,0l54.27-31.33c1.44-.83,3.78-.83,5.22,0l11.01,6.36c1.44,.83,1.44,2.18,0,3.02l-54.27,31.33c-.88,.51-.88,1.33,0,1.84,.88,.51,2.3,.51,3.18,0Z"/>
            <polygon class="cls-1" points="286.86 141.19 315.06 124.91 315.06 96.64 286.86 112.92 286.86 141.19"/>
            <g>
              <path class="cls-1" d="M250.12,93.86c.88,.51,2.3,.51,3.18,0l54.27-31.33c1.44-.83,3.78-.83,5.22,0l11.01,6.36c.94,.54,1.26,1.31,.97,2.01-.15-.37-.48-.72-.97-1l-11.01-6.36c-1.44-.83-3.78-.83-5.22,0l-54.27,31.33c-.88,.51-2.3,.51-3.18,0-.67-.38-.82-.95-.48-1.42,.11,.15,.27,.29,.48,.42Z"/>
              <path class="cls-1" d="M269.54,105.07c.88,.51,2.3,.51,3.18,0l54.27-31.33c1.38-.79,2.15-1.8,2.35-2.84,.25,1.37-.53,2.8-2.35,3.85l-54.27,31.33c-.88,.51-2.3,.51-3.18,0-.67-.38-.82-.95-.48-1.42,.11,.15,.27,.29,.48,.42Z"/>
            </g>
          </g>
          <g>
            <g>
              <path class="cls-14" d="M352.63,159.14c3.19,1.84,3.19,4.84,0,6.69l-54.27,31.33c-.88,.51-2.3,.51-3.18,0-.88-.51-.88-1.33,0-1.84l54.27-31.33c1.44-.83,1.44-2.18,0-3.02l-5.26-3.04c.58-.88,1.11-1.79,1.63-2.73l6.8,3.93Z"/>
              <path class="cls-16" d="M275.76,184.11l54.27-31.33c3.19-1.84,8.39-1.84,11.58,0l4.21,2.43c-.52,.93-1.05,1.85-1.63,2.73l-5.75-3.32c-1.44-.83-3.78-.83-5.22,0l-54.27,31.33c-.88,.51-2.3,.51-3.18,0-.88-.51-.88-1.33,0-1.84Z"/>
            </g>
            <polygon class="cls-16" points="275.11 185.1 275.1 108.78 331.98 77.08 339.93 76.55 347.62 81.53 352.34 85.64 296.93 173.51 278.84 184.18 275.11 185.1"/>
            <polygon class="cls-12" points="296.14 194.73 279.14 184.92 279.14 111.16 296.67 119.31 296.14 194.73"/>
            <polygon class="cls-14" points="355.02 86.23 355.02 162.42 295.32 196.57 294.52 196.25 294.52 119.95 355.02 86.23"/>
            <path class="cls-1" d="M321.44,86.86l11.87-6.82c1.45-.67,3.57-.63,4.91,.15l11.01,6.36c.85,.49,1.2,1.17,1.04,1.81l-29.98,17.92-24.08,14.78-17.06-9.89,42.3-24.3Z"/>
            <path class="cls-16" d="M296.67,118.75v78.78c-.54-.01-1.08-.14-1.49-.37-.43-.25-.65-.57-.66-.9h0V119.95l2.15-1.2Z"/>
            <polygon class="cls-1" points="275.1 109.73 275.1 108.78 275.41 108.78 275.5 109.43 275.1 109.73"/>
            <polygon class="cls-1" points="294.52 120.94 294.52 119.97 294.81 120.38 294.52 120.94"/>
            <path class="cls-14" d="M298.36,120.86l54.27-31.33c3.19-1.84,3.19-4.84,0-6.69l-11.01-6.36c-3.19-1.84-8.39-1.84-11.58,0l-54.27,31.33c-.88,.51-.88,1.33,0,1.84s2.3,.51,3.18,0l54.27-31.33c1.44-.83,3.78-.83,5.22,0l11.01,6.36c1.44,.83,1.44,2.18,0,3.02l-54.27,31.33c-.88,.51-.88,1.33,0,1.84,.88,.51,2.3,.51,3.18,0Z"/>
            <polygon class="cls-1" points="312.5 156.98 340.7 140.7 340.7 112.42 312.5 128.71 312.5 156.98"/>
            <g>
              <path class="cls-1" d="M275.76,109.65c.88,.51,2.3,.51,3.18,0l54.27-31.33c1.44-.83,3.78-.83,5.22,0l11.01,6.36c.94,.54,1.26,1.31,.97,2.01-.15-.37-.48-.72-.97-1.01l-11.01-6.36c-1.44-.83-3.78-.83-5.22,0l-54.27,31.33c-.88,.51-2.3,.51-3.18,0-.67-.38-.82-.95-.48-1.42,.11,.15,.27,.29,.48,.42Z"/>
              <path class="cls-1" d="M295.18,120.86c.88,.51,2.3,.51,3.18,0l54.27-31.33c1.38-.79,2.15-1.8,2.34-2.84,.25,1.37-.53,2.8-2.34,3.85l-54.27,31.33c-.88,.51-2.3,.51-3.18,0-.67-.38-.82-.95-.48-1.42,.11,.15,.27,.29,.48,.42Z"/>
            </g>
          </g>
        </g>
      </g>
    </g>
    <g class="cls-9">
      <g>
        <g>
          <g>
            <path class="cls-14" d="M302.04,128.58c3.19,1.84,3.19,4.84,0,6.69l-54.27,31.33c-.88,.51-2.3,.51-3.18,0-.88-.51-.88-1.33,0-1.84l54.27-31.33c1.44-.83,1.44-2.18,0-3.02l-5.26-3.04c.58-.88,1.11-1.79,1.63-2.73l6.8,3.93Z"/>
            <path class="cls-16" d="M225.17,153.55l54.27-31.33c3.19-1.84,8.39-1.84,11.58,0l4.21,2.43c-.52,.93-1.05,1.85-1.63,2.73l-5.75-3.32c-1.44-.83-3.78-.83-5.22,0l-54.27,31.33c-.88,.51-2.3,.51-3.18,0-.88-.51-.88-1.33,0-1.84Z"/>
          </g>
          <polygon class="cls-16" points="224.52 154.54 224.51 78.22 281.39 46.52 289.34 45.99 297.03 50.97 301.75 55.08 246.34 142.95 228.25 153.62 224.52 154.54"/>
          <polygon class="cls-12" points="245.55 164.17 228.55 154.36 228.55 80.61 246.08 88.75 245.55 164.17"/>
          <polygon class="cls-14" points="304.43 55.67 304.43 131.86 244.73 166.01 243.93 165.69 243.93 89.39 304.43 55.67"/>
          <path class="cls-1" d="M270.85,56.3l11.87-6.82c1.45-.67,3.57-.63,4.91,.15l11.01,6.36c.85,.49,1.2,1.17,1.04,1.81l-29.98,17.92-24.08,14.78-17.06-9.89,42.3-24.3Z"/>
          <path class="cls-16" d="M246.08,88.19v78.78c-.54-.01-1.08-.14-1.49-.37-.43-.25-.65-.57-.66-.9h0V89.39l2.15-1.2Z"/>
          <polygon class="cls-1" points="224.51 79.17 224.51 78.22 224.82 78.22 224.91 78.87 224.51 79.17"/>
          <polygon class="cls-1" points="243.93 90.38 243.93 89.41 244.22 89.82 243.93 90.38"/>
          <path class="cls-14" d="M247.77,90.3l54.27-31.33c3.19-1.84,3.19-4.84,0-6.69l-11.01-6.36c-3.19-1.84-8.39-1.84-11.58,0l-54.27,31.33c-.88,.51-.88,1.33,0,1.84,.88,.51,2.3,.51,3.18,0l54.27-31.33c1.44-.83,3.78-.83,5.22,0l11.01,6.36c1.44,.83,1.44,2.18,0,3.02l-54.27,31.33c-.88,.51-.88,1.33,0,1.84,.88,.51,2.3,.51,3.18,0Z"/>
          <polygon class="cls-1" points="261.91 126.42 290.11 110.14 290.11 81.86 261.91 98.15 261.91 126.42"/>
          <g>
            <path class="cls-1" d="M225.17,79.09c.88,.51,2.3,.51,3.18,0l54.27-31.33c1.44-.83,3.78-.83,5.22,0l11.01,6.36c.94,.54,1.26,1.31,.97,2.01-.15-.37-.48-.72-.97-1.01l-11.01-6.36c-1.44-.83-3.78-.83-5.22,0l-54.27,31.33c-.88,.51-2.3,.51-3.18,0-.67-.38-.82-.95-.48-1.42,.11,.15,.27,.29,.48,.42Z"/>
            <path class="cls-1" d="M244.59,90.3c.88,.51,2.3,.51,3.18,0l54.27-31.33c1.38-.79,2.15-1.8,2.34-2.84,.25,1.37-.53,2.8-2.34,3.85l-54.27,31.33c-.88,.51-2.3,.51-3.18,0-.67-.38-.82-.95-.48-1.42,.11,.15,.27,.29,.48,.42Z"/>
          </g>
        </g>
        <g>
          <g>
            <path class="cls-3" d="M326.99,143.35c3.19,1.84,3.19,4.84,0,6.69l-54.27,31.33c-.88,.51-2.3,.51-3.18,0-.88-.51-.88-1.33,0-1.84l54.27-31.33c1.44-.83,1.44-2.18,0-3.02l-5.26-3.04c.58-.88,1.11-1.79,1.63-2.73l6.8,3.93Z"/>
            <path class="cls-2" d="M250.12,168.33l54.27-31.33c3.19-1.84,8.39-1.84,11.58,0l4.21,2.43c-.52,.93-1.05,1.85-1.63,2.73l-5.75-3.32c-1.44-.83-3.78-.83-5.22,0l-54.27,31.33c-.88,.51-2.3,.51-3.18,0-.88-.51-.88-1.33,0-1.84Z"/>
          </g>
          <polygon class="cls-2" points="249.47 169.31 249.47 92.99 306.34 61.29 314.29 60.76 321.98 65.75 326.7 69.85 271.29 157.73 253.2 168.39 249.47 169.31"/>
          <polygon class="cls-15" points="270.5 178.95 253.5 169.13 253.5 95.38 271.03 103.52 270.5 178.95"/>
          <polygon class="cls-3" points="329.38 70.44 329.38 146.63 269.68 180.79 268.88 180.47 268.88 104.16 329.38 70.44"/>
          <path class="cls-1" d="M295.8,71.07l11.87-6.82c1.45-.67,3.57-.63,4.91,.15l11.01,6.36c.85,.49,1.2,1.17,1.04,1.81l-29.98,17.92-24.08,14.78-17.06-9.89,42.3-24.3Z"/>
          <path class="cls-2" d="M271.03,102.97v78.78c-.54-.01-1.08-.14-1.49-.37-.43-.25-.65-.57-.66-.9h0V104.16l2.15-1.2Z"/>
          <polygon class="cls-1" points="249.47 93.95 249.47 92.99 249.77 92.99 249.86 93.64 249.47 93.95"/>
          <polygon class="cls-1" points="268.88 105.15 268.88 104.18 269.17 104.59 268.88 105.15"/>
          <path class="cls-3" d="M272.72,105.07l54.27-31.33c3.19-1.84,3.19-4.84,0-6.69l-11.01-6.36c-3.19-1.84-8.39-1.84-11.58,0l-54.27,31.33c-.88,.51-.88,1.33,0,1.84,.88,.51,2.3,.51,3.18,0l54.27-31.33c1.44-.83,3.78-.83,5.22,0l11.01,6.36c1.44,.83,1.44,2.18,0,3.02l-54.27,31.33c-.88,.51-.88,1.33,0,1.84,.88,.51,2.3,.51,3.18,0Z"/>
          <polygon class="cls-1" points="286.86 141.19 315.06 124.91 315.06 96.64 286.86 112.92 286.86 141.19"/>
          <g>
            <path class="cls-1" d="M250.12,93.86c.88,.51,2.3,.51,3.18,0l54.27-31.33c1.44-.83,3.78-.83,5.22,0l11.01,6.36c.94,.54,1.26,1.31,.97,2.01-.15-.37-.48-.72-.97-1l-11.01-6.36c-1.44-.83-3.78-.83-5.22,0l-54.27,31.33c-.88,.51-2.3,.51-3.18,0-.67-.38-.82-.95-.48-1.42,.11,.15,.27,.29,.48,.42Z"/>
            <path class="cls-1" d="M269.54,105.07c.88,.51,2.3,.51,3.18,0l54.27-31.33c1.38-.79,2.15-1.8,2.35-2.84,.25,1.37-.53,2.8-2.35,3.85l-54.27,31.33c-.88,.51-2.3,.51-3.18,0-.67-.38-.82-.95-.48-1.42,.11,.15,.27,.29,.48,.42Z"/>
          </g>
        </g>
        <g>
          <g>
            <path class="cls-14" d="M352.63,159.14c3.19,1.84,3.19,4.84,0,6.69l-54.27,31.33c-.88,.51-2.3,.51-3.18,0-.88-.51-.88-1.33,0-1.84l54.27-31.33c1.44-.83,1.44-2.18,0-3.02l-5.26-3.04c.58-.88,1.11-1.79,1.63-2.73l6.8,3.93Z"/>
            <path class="cls-16" d="M275.76,184.11l54.27-31.33c3.19-1.84,8.39-1.84,11.58,0l4.21,2.43c-.52,.93-1.05,1.85-1.63,2.73l-5.75-3.32c-1.44-.83-3.78-.83-5.22,0l-54.27,31.33c-.88,.51-2.3,.51-3.18,0-.88-.51-.88-1.33,0-1.84Z"/>
          </g>
          <polygon class="cls-16" points="275.11 185.1 275.1 108.78 331.98 77.08 339.93 76.55 347.62 81.53 352.34 85.64 296.93 173.51 278.84 184.18 275.11 185.1"/>
          <polygon class="cls-12" points="296.14 194.73 279.14 184.92 279.14 111.16 296.67 119.31 296.14 194.73"/>
          <polygon class="cls-14" points="355.02 86.23 355.02 162.42 295.32 196.57 294.52 196.25 294.52 119.95 355.02 86.23"/>
          <path class="cls-1" d="M321.44,86.86l11.87-6.82c1.45-.67,3.57-.63,4.91,.15l11.01,6.36c.85,.49,1.2,1.17,1.04,1.81l-29.98,17.92-24.08,14.78-17.06-9.89,42.3-24.3Z"/>
          <path class="cls-16" d="M296.67,118.75v78.78c-.54-.01-1.08-.14-1.49-.37-.43-.25-.65-.57-.66-.9h0V119.95l2.15-1.2Z"/>
          <polygon class="cls-1" points="275.1 109.73 275.1 108.78 275.41 108.78 275.5 109.43 275.1 109.73"/>
          <polygon class="cls-1" points="294.52 120.94 294.52 119.97 294.81 120.38 294.52 120.94"/>
          <path class="cls-14" d="M298.36,120.86l54.27-31.33c3.19-1.84,3.19-4.84,0-6.69l-11.01-6.36c-3.19-1.84-8.39-1.84-11.58,0l-54.27,31.33c-.88,.51-.88,1.33,0,1.84s2.3,.51,3.18,0l54.27-31.33c1.44-.83,3.78-.83,5.22,0l11.01,6.36c1.44,.83,1.44,2.18,0,3.02l-54.27,31.33c-.88,.51-.88,1.33,0,1.84,.88,.51,2.3,.51,3.18,0Z"/>
          <polygon class="cls-1" points="312.5 156.98 340.7 140.7 340.7 112.42 312.5 128.71 312.5 156.98"/>
          <g>
            <path class="cls-1" d="M275.76,109.65c.88,.51,2.3,.51,3.18,0l54.27-31.33c1.44-.83,3.78-.83,5.22,0l11.01,6.36c.94,.54,1.26,1.31,.97,2.01-.15-.37-.48-.72-.97-1.01l-11.01-6.36c-1.44-.83-3.78-.83-5.22,0l-54.27,31.33c-.88,.51-2.3,.51-3.18,0-.67-.38-.82-.95-.48-1.42,.11,.15,.27,.29,.48,.42Z"/>
            <path class="cls-1" d="M295.18,120.86c.88,.51,2.3,.51,3.18,0l54.27-31.33c1.38-.79,2.15-1.8,2.34-2.84,.25,1.37-.53,2.8-2.34,3.85l-54.27,31.33c-.88,.51-2.3,.51-3.18,0-.67-.38-.82-.95-.48-1.42,.11,.15,.27,.29,.48,.42Z"/>
          </g>
        </g>
      </g>
    </g>
    <g>
      <path class="cls-6" d="M375.8,281.66c-2.15-1.24-5.63-1.24-7.77,0l-100.24,57.9c-2.15,1.24-2.15,3.25,0,4.49,2.15,1.24,5.63,1.24,7.77,0l100.24-57.9c2.15-1.24,2.15-3.25,0-4.49Z"/>
      <g>
        <path class="cls-14" d="M392.93,250.3h0c-.1-.16-.29-.25-.47-.21l-6.06,1.31,2.39,4.06,4.1-4.66c.13-.14,.14-.35,.05-.51Z"/>
        <g>
          <path class="cls-16" d="M390.54,253.3c0-.87-.63-1.93-1.39-2.36-.35-.2-.67-.22-.91-.11-7.01-.06-13.9,1.79-19.94,5.34l-.44,.26,7.53,12.81,2.22-1.47c4.71-3.12,8.67-7.23,11.62-12.05l.95-1.56c.22-.16,.35-.44,.35-.85Z"/>
          <path class="cls-14" d="M376.9,265.82c-.03-3.35-2.41-7.41-5.33-9.06-2.92-1.65-5.26-.28-5.23,3.07,.03,3.35,2.41,7.41,5.33,9.06,2.92,1.65,5.26,.28,5.23-3.07Z"/>
          <polygon class="cls-14" points="330.69 297.08 375.39 269.23 367.86 256.42 321.79 281.94 330.69 297.08"/>
          <path class="cls-14" d="M332.48,293.04c-.03-3.96-2.85-8.75-6.29-10.71s-6.21-.33-6.18,3.63c.03,3.96,2.85,8.75,6.29,10.71,3.44,1.95,6.21,.33,6.18-3.63Z"/>
        </g>
        <g>
          <path class="cls-14" d="M329.93,294.54c-.03-3.96-2.85-8.75-6.29-10.71s-6.21-.33-6.18,3.63c.03,3.96,2.85,8.75,6.29,10.71,3.44,1.95,6.21,.33,6.18-3.63Z"/>
          <rect class="cls-14" x="259.82" y="299.61" width="68.6" height="17.56" transform="translate(-115.71 191.57) rotate(-30.45)"/>
          <path class="cls-14" d="M270.79,329.3c-.03-3.96-2.85-8.75-6.29-10.71-3.44-1.95-6.21-.33-6.18,3.63,.03,3.96,2.85,8.75,6.29,10.71s6.21,.33,6.18-3.63Z"/>
          <path class="cls-8" d="M268.56,328.04c-.14-2.34-2.04-5.25-4.25-6.5-2.21-1.25-3.89-.38-3.76,1.96,.14,2.34,2.04,5.25,4.25,6.5,2.21,1.25,3.89,.38,3.76-1.96Z"/>
        </g>
        <g>
          <path class="cls-1" d="M332.93,292.78c-.03-3.96-2.85-8.75-6.29-10.71-1.39-.79-2.66-.98-3.69-.69,1.12-1.17,2.95-1.31,5.04-.12,3.44,1.95,6.26,6.75,6.29,10.71,.02,2.36-.97,3.89-2.49,4.32,.73-.76,1.15-1.95,1.14-3.51Z"/>
          <path class="cls-16" d="M332.93,292.78c-.03-3.96-2.85-8.75-6.29-10.71-1.72-.98-3.28-1.06-4.39-.4l-3.35,1.97,1.6,2.72c.29,3.6,2.7,7.7,5.71,9.71l1.6,2.72,3.35-1.97h0c1.12-.66,1.8-2.05,1.79-4.03Z"/>
          <path class="cls-14" d="M329.58,294.75c-.03-3.96-2.85-8.75-6.29-10.71-3.44-1.95-6.21-.33-6.18,3.63s2.85,8.75,6.29,10.71c3.44,1.95,6.21,.33,6.18-3.63Z"/>
        </g>
        <g>
          <path class="cls-3" d="M265.77,329.8l-3.84-6.53-12.53,7.37c-1.8,1.06-2.41,3.38-1.35,5.19h0c1.06,1.8,3.38,2.41,5.19,1.35l12.53-7.37Z"/>
          <path class="cls-3" d="M266.55,328.06c-.01-1.71-1.23-3.78-2.72-4.62s-2.68-.14-2.67,1.57c.01,1.71,1.23,3.78,2.72,4.62,1.49,.84,2.68,.14,2.67-1.57Z"/>
        </g>
        <g>
          <path class="cls-16" d="M280.48,305l-1.88-1.07c-1.08-.61-2.51-.46-4.02,.43l-6.44,3.79c-1.22,.71-2.2,2.44-2.19,3.85l.03,3.22c0,.54-.26,1.16-.65,1.62l.24,1.49-1.61-.92h0c-.23-.12-.38-.39-.38-.79l-.03-3.22c-.02-2.94,2.02-6.55,4.56-8.04l6.44-3.79c2.15-1.27,4.18-1.48,5.72-.61l1.88,1.07c1.08,.61,2.51,.46,4.02-.43l25.96-15.26c.34-.2,.64-.21,.86-.08h0s1.6,.92,1.6,.92l-1.37,.53c-.19,.58-.59,1.14-1.07,1.42l-25.96,15.26c-2.15,1.27-4.18,1.48-5.72,.61Z"/>
          <path class="cls-16" d="M280.22,304.86c-1.08-.61-2.51-.46-4.02,.43l-6.44,3.79c-1.22,.71-2.2,2.44-2.19,3.85l.03,3.22c0,.77-.52,1.7-1.19,2.09-.66,.39-1.2,.08-1.21-.68l-.03-3.22c-.02-2.94,2.02-6.55,4.56-8.04l6.44-3.79c2.15-1.27,4.18-1.48,5.72-.61l1.88,1.07c1.08,.61,2.51,.46,4.02-.43l25.96-15.26c.66-.39,1.2-.08,1.21,.68,0,.77-.52,1.7-1.19,2.09l-25.96,15.26c-2.15,1.27-4.18,1.48-5.72,.61l-1.88-1.07Z"/>
          <path class="cls-1" d="M267.5,313.47l.03,3.22s0,.04,0,.07c.06-.2,.09-.41,.09-.6l-.03-3.22c0-.09,.01-.19,.02-.28-.06,.28-.1,.55-.1,.81Z"/>
        </g>
      </g>
    </g>
    <g>
      <g>
        <ellipse class="cls-6" cx="245" cy="250.18" rx="20.39" ry="11.77"/>
        <path class="cls-3" d="M268.19,240.11v-6.51h-1.23c-1.1-1.9-2.94-3.69-5.56-5.2-9.06-5.23-23.74-5.23-32.8,0-2.62,1.51-4.46,3.3-5.56,5.2h-1.23v6.48h0c-.02,3.44,2.25,6.88,6.79,9.5,9.06,5.23,23.74,5.23,32.8,0,4.53-2.61,6.79-6.04,6.79-9.47Z"/>
        <ellipse class="cls-3" cx="245" cy="233.6" rx="23.19" ry="13.39"/>
        <path class="cls-1" d="M261.4,243.07c-9.06,5.23-23.74,5.23-32.8,0-4.34-2.51-6.58-5.76-6.76-9.04-.2,3.57,2.04,7.17,6.76,9.89,9.06,5.23,23.74,5.23,32.8,0,4.72-2.72,6.95-6.33,6.76-9.89-.18,3.28-2.42,6.54-6.76,9.04Z"/>
      </g>
      <path class="cls-1" d="M233.82,238.03c-.39-.23-.61-.53-.61-.85l.02-8.72c0-.66,.94-1.2,2.09-1.2,1.15,0,2.08,.54,2.08,1.21l-.02,7.23,21-2.57c1.13-.14,2.24,.28,2.48,.93,.24,.65-.48,1.29-1.61,1.43l-23.52,2.88c-.62,.08-1.26-.01-1.75-.24-.06-.03-.11-.05-.16-.08Z"/>
    </g>
    <g>
      <g>
        <polygon class="cls-6" points="125.13 165.99 107.9 156.04 125.13 146.09 142.36 156.04 125.13 165.99"/>
        <polygon class="cls-2" points="142.36 143.41 125.13 153.36 125.13 133.46 142.36 123.51 142.36 143.41"/>
        <polygon class="cls-3" points="125.13 133.46 107.9 123.51 125.13 113.57 142.36 123.51 125.13 133.46"/>
        <polygon class="cls-3" points="125.13 153.36 107.9 143.41 107.9 123.51 125.13 133.46 125.13 153.36"/>
      </g>
      <polygon class="cls-1" points="118.93 142.61 114.11 139.83 114.11 134.26 118.93 137.05 118.93 142.61"/>
    </g>
    <g>
      <g>
        <polygon class="cls-6" points="17.94 344.36 0 334 17.94 323.65 35.88 334.01 17.94 344.36"/>
        <polygon class="cls-5" points="35.88 320.86 17.94 331.21 17.94 310.5 35.88 300.14 35.88 320.86"/>
        <polygon class="cls-14" points="17.94 310.5 0 300.14 17.94 289.79 35.88 300.14 17.94 310.5"/>
        <polygon class="cls-16" points="17.94 331.21 0 320.86 0 300.14 17.94 310.5 17.94 331.21"/>
      </g>
      <polygon class="cls-1" points="11.48 320.02 6.46 317.13 6.46 311.33 11.48 314.23 11.48 320.02"/>
    </g>
    <path class="cls-6" d="M83.18,320.19l-66.85-38.59c-1.5-.87-1.5-3.04,0-3.9l63.56-36.69,71.12,41.06c1.5,.87,1.5,3.04,0,3.9l-59.29,34.23c-2.64,1.52-5.9,1.52-8.54,0Z"/>
    <g>
      <g>
        <path class="cls-3" d="M81.25,214.24c0-4.24-2.99-5.97-6.66-3.86L12.07,246.41c-1.01,.58-1.83,2-1.83,3.17s.82,1.64,1.83,1.06l62.52-36.02c1.66-.96,3.01-.18,3.01,1.74v6.99c1.21-.08,2.42-.08,3.65-.06v-9.05Z"/>
        <path class="cls-2" d="M12.04,263.21l62.52-22.78c3.68-2.12,6.67-7.3,6.68-11.54v-5.6c-1.22-.02-2.44-.02-3.66,.06v7.65c0,1.91-1.36,4.25-3.02,5.2l-62.52,22.78c-1.01,.58-1.83,2-1.83,3.17,0,1.17,.82,1.64,1.83,1.06Z"/>
      </g>
      <polygon class="cls-2" points="10.69 263.29 86.74 307.3 151.13 268.9 156.24 261.27 155.71 263.98 154.34 256.9 34.81 261.46 13.75 260.11 10.69 263.29"/>
      <polygon class="cls-15" points="13.21 250.01 13.19 259.37 86.69 301.9 88.68 292.98 13.21 250.01"/>
      <polygon class="cls-3" points="155.29 253.89 79.36 209.96 10.9 249.78 10.76 250.75 86.8 294.75 155.29 253.89"/>
      <path class="cls-1" d="M131.09,276.45l17.85-10.59c1.5-1.06,2.68-3.19,2.68-4.98v-1.4c.01-1.13-.46-1.87-1.19-2.08l-35.14,19.55-28.62,15.48,.03,9.47,44.39-25.45Z"/>
      <path class="cls-2" d="M89.23,293.3L13.78,249.65l-1.6-.93-1.46-.85c-.3,.55-.49,1.15-.49,1.7,0,.57,.2,.98,.52,1.17h0s.01,.01,.01,.01h0s76.03,43.99,76.03,43.99l2.43-1.45Z"/>
      <polygon class="cls-1" points="85.79 306.75 86.74 307.3 86.92 307 86.32 306.53 85.79 306.75"/>
      <polygon class="cls-1" points="85.82 294.18 86.79 294.74 86.55 294.21 85.82 294.18"/>
      <path class="cls-3" d="M88.11,290.4l62.52-36.02c3.68-2.12,6.67-.39,6.66,3.85v1.4c-.02,4.24-3.01,9.42-6.69,11.54l-62.52,36.02c-1.01,.58-1.83,.11-1.83-1.06s.82-2.59,1.83-3.17l62.52-36.02c1.66-.96,3.01-3.29,3.01-5.21v-1.4c.01-1.91-1.33-2.69-2.99-1.74l-62.52,36.02c-1.01,.58-1.83,.11-1.83-1.06,0-1.17,.82-2.59,1.83-3.17Z"/>
      <g>
        <path class="cls-1" d="M86.26,306.14c0-1.17,.82-2.59,1.83-3.17l62.52-36.02c1.66-.96,3.01-3.29,3.01-5.21v-1.4c.01-1.25-.57-2.02-1.43-2.13,.28,.37,.44,.89,.44,1.55v1.4c-.01,1.91-1.37,4.25-3.02,5.21l-62.52,36.02c-1.01,.58-1.83,2-1.83,3.17,0,.88,.47,1.37,1.14,1.3-.09-.2-.14-.44-.14-.72Z"/>
        <path class="cls-1" d="M86.28,293.57c0-1.17,.82-2.59,1.83-3.17l62.52-36.02c1.58-.91,3.04-1.11,4.18-.7-1.22-1.04-3.09-1.09-5.18,.12l-62.52,36.02c-1.01,.58-1.83,2-1.83,3.17,0,.88,.47,1.37,1.14,1.3-.09-.2-.14-.44-.14-.72Z"/>
      </g>
      <polygon class="cls-1" points="57.36 254.76 91.86 234.89 121.78 252.19 87.28 272.07 57.36 254.76"/>
    </g>
    <g>
      <path class="cls-6" d="M142.67,350.88c13.81,7.97,36.2,7.97,50.01,0,13.81-7.97,13.81-20.9,0-28.87-13.81-7.97-36.2-7.97-50.01,0-13.81,7.97-13.81,20.9,0,28.87Zm13.51-21.07c6.35-3.67,16.64-3.67,22.99,0,6.35,3.67,6.35,9.61,0,13.27-6.35,3.67-16.64,3.67-22.99,0-6.35-3.66-6.35-9.61,0-13.27Z"/>
      <g>
        <g>
          <path class="cls-7" d="M197.9,317.29l-12.61,.2c-.93-1.21-2.26-2.35-3.98-3.35-6.94-4-17.84-4.31-25.4-.93l-7.5-7.05-11.54,.18c.57-.37,1.16-.74,1.77-1.1,16.04-9.26,42.04-9.26,58.08,0,2.95,1.7,5.35,3.6,7.22,5.62l-6.04,6.43Z"/>
          <polygon class="cls-2" points="136.86 288.01 136.86 306.33 148.4 306.15 148.4 287.83 136.86 288.01"/>
          <polygon class="cls-7" points="155.9 294.88 155.9 313.2 148.4 306.15 148.4 287.83 155.9 294.88"/>
          <path class="cls-7" d="M185.28,299.17v18.32l-16.59-13.52-12.79,9.24v-18.32l11.78-5.71s16.21,4.96,17.06,5.17c.84,.21,.55,4.82,.55,4.82Z"/>
          <polygon class="cls-7" points="197.9 298.97 197.9 317.29 185.28 317.48 185.28 299.17 197.9 298.97"/>
          <polygon class="cls-2" points="203.94 292.54 203.94 310.85 197.9 317.29 197.9 298.97 203.94 292.54"/>
          <path class="cls-3" d="M197.9,298.97l-12.61,.2c-.93-1.21-2.26-2.35-3.98-3.35-6.94-4-17.84-4.31-25.4-.93l-7.5-7.05-11.54,.18c.57-.37,1.16-.74,1.77-1.1,16.04-9.26,42.04-9.26,58.08,0,2.95,1.7,5.35,3.6,7.22,5.62l-6.04,6.43Z"/>
        </g>
        <g>
          <path class="cls-16" d="M152.1,297.14v16.84l-10.92-2.62s.64-9.85,.87-10.12c.23-.26,10.05-4.11,10.05-4.11Z"/>
          <g>
            <path class="cls-5" d="M160.36,313.97v18.32l-1.18,1.26-7.7-4.44s1.19-13.98,1.33-14.26c.14-.28,7.54-.87,7.54-.87Z"/>
            <path class="cls-8" d="M145.5,309.25l6.6,6.21c-5.5,4.35-4.85,10.48,1.95,14.41,1.86,1.08,4.01,1.88,6.31,2.43l-6.82,7.27,6.05,5.69c-7.68-.89-15-3.04-20.95-6.48-13.79-7.96-15.71-20.17-5.79-29.32l12.66-.2Z"/>
            <polygon class="cls-8" points="159.59 326.93 159.59 345.25 144.62 339.47 126.61 322.29 126.68 302.84 145.73 317.94 159.59 326.93"/>
            <path class="cls-14" d="M145.5,290.93l6.6,6.21c-5.5,4.35-4.85,10.48,1.95,14.41,1.86,1.08,4.01,1.88,6.31,2.43l-6.82,7.27,6.05,5.69c-7.68-.89-15-3.04-20.95-6.48-13.79-7.96-15.71-20.17-5.79-29.32l12.66-.2Z"/>
          </g>
        </g>
        <g>
          <path class="cls-8" d="M159.63,339.47l6.01-6.41c5.58,.34,11.37-.72,15.65-3.19,4.42-2.55,6.24-6.03,5.47-9.35l14.32-.22,5.51-5.87c4.82,8.27,1.53,17.76-9.88,24.35-8.38,4.84-19.48,7.14-30.46,6.93l-6.62-6.23Z"/>
          <polygon class="cls-8" points="166.26 327.37 166.26 345.69 208.74 322.15 208.74 303.82 202.54 306.33 166.26 327.37"/>
          <polygon class="cls-5" points="159.63 321.15 159.63 339.47 166.26 345.69 166.26 327.37 159.63 321.15"/>
          <path class="cls-16" d="M159.63,321.15l6.01-6.41c5.58,.34,11.37-.72,15.65-3.19,4.42-2.55,6.24-6.03,5.47-9.35l14.32-.22,5.51-5.87c4.82,8.27,1.53,17.76-9.88,24.35-8.38,4.84-19.48,7.14-30.46,6.93l-6.62-6.23Z"/>
        </g>
      </g>
    </g>
  </g>
</svg>